<svg width="1246" height="231" viewBox="0 0 1246 231" fill="none" xmlns="http://www.w3.org/2000/svg">
<path d="M0.511719 225L109.066 17.7344C111.71 12.7214 115.811 8.84766 121.371 6.11328C126.931 3.28776 132.719 1.875 138.734 1.875C144.112 1.875 149.353 3.10547 154.457 5.56641C159.652 8.02734 163.663 11.8099 166.488 16.9141L282.973 225H172.094L163.48 203.398H104.418L97.0352 225H0.511719ZM111.117 160.059H155.277L134.359 100.996L111.117 160.059ZM411.215 175.098L386.332 225H304.848L364.457 111.387L300.062 6.66016H398.09L422.426 50.2734L447.992 6.66016H524.418L467.27 109.336L538.09 225H437.328L411.215 175.098ZM566.801 6.66016H724.164V69.5508H651.84V87.4609H723.891V141.055H651.84V161.699H728.949V225H566.801V6.66016ZM876.059 230.332C860.655 230.332 845.707 227.643 831.215 222.266C816.814 216.797 803.826 209.004 792.25 198.887C780.766 188.77 771.651 176.647 764.906 162.52C758.161 148.301 754.789 132.441 754.789 114.941C754.789 97.806 757.934 82.2201 764.223 68.1836C770.603 54.1471 779.398 42.0703 790.609 31.9531C801.82 21.8359 814.717 14.0885 829.301 8.71094C843.975 3.24219 859.561 0.507812 876.059 0.507812C893.376 0.507812 909.509 3.15104 924.457 8.4375C939.496 13.6328 952.621 21.2435 963.832 31.2695C975.134 41.2044 983.93 53.3268 990.219 67.6367C996.599 81.8555 999.789 97.9883 999.789 116.035C999.789 133.535 996.462 149.349 989.809 163.477C983.155 177.513 974.04 189.499 962.465 199.434C950.889 209.368 937.673 217.025 922.816 222.402C908.051 227.689 892.465 230.332 876.059 230.332ZM866.488 159.238C871.319 159.238 876.469 156.914 881.938 152.266C887.406 147.526 892.556 141.51 897.387 134.219C902.217 126.927 906.137 119.225 909.145 111.113C912.243 103.001 913.793 95.5273 913.793 88.6914C913.793 82.3112 912.107 77.0247 908.734 72.832C905.362 68.6393 899.665 66.543 891.645 66.543C886.723 66.543 881.436 68.8672 875.785 73.5156C870.225 78.0729 864.984 83.9974 860.062 91.2891C855.232 98.4896 851.267 106.146 848.168 114.258C845.069 122.279 843.52 129.707 843.52 136.543C843.52 143.105 845.251 148.529 848.715 152.812C852.27 157.096 858.194 159.238 866.488 159.238ZM1027 6.66016H1049.14L1168.36 91.6992V6.66016H1245.34V225H1215.94L1103.7 149.941V225H1027V6.66016Z" fill="#262828"/>
</svg>
